<svg width="16" height="16" viewBox="0 0 16 16" fill="none" xmlns="http://www.w3.org/2000/svg">
<path d="M14.3044 5.31563C14.1933 5.27194 14.075 5.24967 13.9556 5.25H13.9431C13.3128 5.25938 12.6059 5.84969 12.235 6.7425C11.7903 7.81063 11.995 8.90344 12.6956 9.18438C12.8066 9.22806 12.9248 9.25033 13.0441 9.25C13.6775 9.25 14.3941 8.65625 14.7681 7.7575C15.2097 6.68938 15.0019 5.59657 14.3044 5.31563V5.31563Z" stroke="black" stroke-miterlimit="10"/>
<path d="M10.2375 9.48375C9.36875 8.04219 8.99375 7.5 8 7.5C7.00625 7.5 6.62813 8.04563 5.75938 9.48375C5.01563 10.7138 3.5125 10.8162 3.1375 11.8609C3.06142 12.0523 3.02322 12.2566 3.025 12.4625C3.025 13.3122 3.675 14 4.475 14C5.46875 14 6.82188 13.2066 8.00313 13.2066C9.18438 13.2066 10.5312 14 11.525 14C12.325 14 12.9719 13.3125 12.9719 12.4625C12.9726 12.2564 12.9333 12.0521 12.8562 11.8609C12.4812 10.8125 10.9813 10.7138 10.2375 9.48375Z" stroke="black" stroke-miterlimit="10"/>
<path d="M6.01594 6.125C6.05778 6.12503 6.09957 6.1219 6.14094 6.11563C6.86625 6.01031 7.31906 5.00531 7.15469 3.87031C7 2.80031 6.35062 2 5.67156 2C5.62972 1.99997 5.58793 2.0031 5.54656 2.00938C4.82125 2.11469 4.36844 3.11969 4.53281 4.25469C4.6875 5.32156 5.33687 6.125 6.01594 6.125Z" stroke="black" stroke-miterlimit="10"/>
<path d="M11.4662 4.25469C11.6306 3.11969 11.1778 2.11469 10.4525 2.00938C10.4111 2.0031 10.3693 1.99997 10.3275 2C9.64844 2 9.00031 2.80031 8.84531 3.87031C8.68094 5.00531 9.13375 6.01031 9.85906 6.11563C9.90043 6.1219 9.94222 6.12503 9.98406 6.125C10.6631 6.125 11.3125 5.32156 11.4662 4.25469V4.25469Z" stroke="black" stroke-miterlimit="10"/>
<path d="M3.30531 9.18438C4.005 8.90313 4.20937 7.80938 3.76531 6.7425C3.39156 5.84375 2.67562 5.25 2.04312 5.25C1.92387 5.24968 1.80564 5.27194 1.69468 5.31563C0.994996 5.59688 0.790621 6.69063 1.23468 7.7575C1.60843 8.65625 2.32437 9.25 2.95687 9.25C3.07612 9.25033 3.19435 9.22806 3.30531 9.18438V9.18438Z" stroke="black" stroke-miterlimit="10"/>
</svg>
