

<svg xmlns="http://www.w3.org/2000/svg" xmlns:xlink="http://www.w3.org/1999/xlink" aria-hidden="true" role="img" width="16" height="16" preserveAspectRatio="xMidYMid meet" viewBox="0 0 21 21"><g fill="none" fill-rule="evenodd" stroke="currentColor" stroke-linecap="round" stroke-linejoin="round"><path d="M6.5 4a1 1 0 0 1 1 1v2a1 1 0 1 1-2 0V5a1 1 0 0 1 1-1z"/><path d="M18.5 6h-11"/><path d="M5.5 6h-3"/><path d="M6.5 14a1 1 0 0 1 1 1v2a1 1 0 0 1-2 0v-2a1 1 0 0 1 1-1z"/><path d="M18.5 16h-11"/><path d="M5.5 16h-3"/><path d="M14.5 9a1 1 0 0 1 1 1v2a1 1 0 0 1-2 0v-2a1 1 0 0 1 1-1z"/><path d="M13.5 11h-11"/><path d="M18.5 11h-3"/></g></svg>